<?xml version="1.0" encoding="UTF-8" standalone="no"?>
<!DOCTYPE svg PUBLIC "-//W3C//DTD SVG 1.1//EN" "http://www.w3.org/Graphics/SVG/1.1/DTD/svg11.dtd">
<svg
   version="1.1"
   width="640"
   height="640"
   viewBox="0 0 639.99996 639.99999"
   xml:space="preserve"
   id="svg8"
   xmlns="http://www.w3.org/2000/svg"
   xmlns:svg="http://www.w3.org/2000/svg">
<desc
     id="desc1">Created with Fabric.js 5.3.0</desc>
<defs
     id="defs1" />
<rect
     style="fill:#ffffff;fill-opacity:0;fill-rule:nonzero;stroke:none;stroke-width:0;stroke-linecap:butt;stroke-linejoin:miter;stroke-miterlimit:4;stroke-dasharray:none;stroke-dashoffset:0"
     paint-order="stroke"
     x="-387.17712"
     y="-186.9306"
     rx="0"
     ry="0"
     width="1280"
     height="1024"
     id="rect1" />

<g
     id="g9"
     transform="matrix(1.0916272,0,0,1.0916272,-29.320698,32.624885)"><path
     style="fill:#a6adb8;fill-opacity:1;fill-rule:nonzero;stroke:none;stroke-width:1.02495;stroke-linecap:butt;stroke-linejoin:miter;stroke-miterlimit:4;stroke-dasharray:none;stroke-dashoffset:0"
     paint-order="stroke"
     d="M 495.82946,121.01231 C 494.08704,100.34942 480.95748,81.562137 461.22727,74.295299 429.53595,62.826151 390.09603,71.281957 358.78394,79.891474 296.76444,98.566025 237.71724,127.5925 186.7672,167.76015 c 2.03964,0.041 3.91531,0.0819 5.35019,0.11273 5.42201,0.0922 14.20581,4.89921 17.79312,15.36393 25.7056,-19.80196 54.14786,-36.49831 83.20512,-50.76555 37.22606,-17.82383 76.55323,-33.003283 117.57154,-38.271516 9.95225,-1.1582 19.9045,-1.53742 29.10849,-0.37923 6.63138,0.871183 12.66833,2.316388 18.15183,5.51422 26.15659,16.860376 11.19239,56.454046 0.48169,79.546056 -22.86655,46.99382 -56.22853,88.50414 -90.74871,127.62632 -14.05204,15.90712 -28.3705,30.23591 -44.61594,43.74469 -31.91684,26.7716 -66.58047,51.75979 -103.41703,71.06974 -9.16303,4.74551 -18.51053,9.06056 -27.88882,12.25838 -7.7076,2.48036 -23.15355,7.22586 -29.48771,1.46567 -5.24773,-6.53916 9.21426,-31.03534 13.4678,-38.44574 13.15008,-22.68207 29.43643,-45.30258 39.93193,-70.18831 6.7339,-16.05062 10.65941,-37.95371 -12.52488,-40.82361 2.51113,0.96345 4.94025,2.09093 7.03112,3.60783 15.3127,10.72096 -3.33107,35.61688 -10.55693,46.68629 -15.01543,21.69815 -33.10575,42.49429 -46.90155,65.82207 -7.36936,13.08853 -16.2044,30.59462 -6.10864,44.91315 18.49001,23.51227 61.17904,4.1305 82.71317,-5.93447 49.01288,-24.83444 93.55706,-56.80251 133.41723,-94.46928 23.1535,-23.16376 44.11366,-48.11098 64.13089,-74.01139 26.33087,-35.21714 52.25174,-72.28942 64.98155,-115.12197 3.20809,-11.63311 5.15551,-23.68648 3.9768,-36.06785 z"
     stroke-linecap="round"
     id="path1" /><g
     transform="matrix(1.0249462,0,0,1.0249462,340.94669,152.02974)"
     id="g2"
     style="paint-order:stroke">
<path
         style="opacity:1;fill:#78549e;fill-rule:nonzero;stroke:none;stroke-width:1;stroke-linecap:butt;stroke-linejoin:miter;stroke-miterlimit:4;stroke-dasharray:none;stroke-dashoffset:0"
         paint-order="stroke"
         transform="translate(-520.43691,-391.48246)"
         d="m 533.08313,404.94823 c -14.26625,13.39798 -31.49323,18.23036 -38.47755,10.79342 -6.98431,-7.43693 -1.08114,-24.32697 13.18511,-37.72495 14.26624,-13.39799 31.49323,-18.23037 38.47754,-10.79343 6.98432,7.43693 1.08114,24.32697 -13.1851,37.72496 z"
         stroke-linecap="round"
         id="path2" />
</g><g
     transform="matrix(1.0249462,0,0,1.0249462,424.3684,145.88006)"
     id="g3"
     style="paint-order:stroke">
<path
         style="opacity:1;fill:#4b8ef9;fill-rule:nonzero;stroke:none;stroke-width:1;stroke-linecap:butt;stroke-linejoin:miter;stroke-miterlimit:4;stroke-dasharray:none;stroke-dashoffset:0"
         paint-order="stroke"
         transform="translate(-601.82821,-385.48246)"
         d="m 614.47443,398.94823 c -14.26625,13.39798 -31.49323,18.23036 -38.47754,10.79342 -6.98432,-7.43693 -1.08114,-24.32697 13.1851,-37.72495 14.26625,-13.39799 31.49323,-18.23037 38.47755,-10.79343 6.98431,7.43693 1.08114,24.32697 -13.18511,37.72496 z"
         stroke-linecap="round"
         id="path3" />
</g><g
     transform="matrix(1.0249462,0,0,1.0249462,385.33131,229.21502)"
     id="g4"
     style="paint-order:stroke">
<path
         style="opacity:1;fill:#e4a130;fill-rule:nonzero;stroke:none;stroke-width:1;stroke-linecap:butt;stroke-linejoin:miter;stroke-miterlimit:4;stroke-dasharray:none;stroke-dashoffset:0"
         paint-order="stroke"
         transform="translate(-563.74125,-466.78913)"
         d="m 576.38747,480.25489 c -14.26624,13.39798 -31.49323,18.23037 -38.47754,10.79343 -6.98431,-7.43694 -1.08114,-24.32698 13.18511,-37.72496 14.26624,-13.39798 31.49323,-18.23036 38.47754,-10.79343 6.98431,7.43694 1.08114,24.32698 -13.18511,37.72496 z"
         stroke-linecap="round"
         id="path4" />
</g><g
     transform="matrix(1.0249462,0,0,1.0249462,324.76475,299.19757)"
     id="g5"
     style="fill:#dee2e6;fill-opacity:1;paint-order:stroke">
<path
         style="opacity:1;fill:#a6adb8;fill-opacity:1;fill-rule:nonzero;stroke:none;stroke-width:1;stroke-linecap:butt;stroke-linejoin:miter;stroke-miterlimit:4;stroke-dasharray:none;stroke-dashoffset:0"
         paint-order="stroke"
         transform="translate(-504.64882,-535.06838)"
         d="M 671.5232,645.18686 526.77973,538.75497 c 7.13403,-10.62494 9.04267,-21.3255 3.86347,-26.83807 -6.02344,-6.4118 -19.67933,-3.68726 -32.4798,5.78967 l -89.57019,-65.85968 -15.02997,21.53998 89.80103,59.466 c -7.55396,10.86988 -9.67548,21.94819 -4.38105,27.58399 6.3758,6.79602 21.30292,3.34967 34.71552,-7.51001 l 151.97449,100.63 c 0.86999,0.57001 1.84997,0.85004 2.82,0.85004 1.60999,0 3.19995,-0.76001 4.19,-2.17999 1.58997,-2.28003 1.07001,-5.40003 -1.16003,-7.04004 z M 483.47321,554.61685 c -3.05999,-3.24896 -1.88696,-10.96014 3.62006,-19.29462 l 13.70001,9.07209 c 1.01734,0.6737 2.34284,0.63946 3.32556,-0.0837 1.54456,-1.1366 3.10981,-2.43451 4.66437,-3.89368 2.35175,-2.20905 4.41559,-4.53662 6.12366,-6.89362 0.92199,-1.27227 0.60748,-3.05877 -0.65839,-3.98956 l -12.36871,-9.09454 c 5.91681,-4.0426 11.98834,-6.40228 16.89343,-6.40228 2.59003,0 4.53003,0.66998 5.78003,2 2.03998,2.16998 2.20996,6.27996 0.45996,11.26995 -2.03998,5.85004 -6.34997,12.06 -12.11999,17.48005 -7.76996,7.29998 -16.82996,11.82995 -23.64997,11.82995 -2.58001,0 -4.53003,-0.66998 -5.77002,-2 z M 377.35322,460.98691 c 0,0 -12.14002,4.82995 -24.35999,-3.70001 -12.23004,-8.53003 -8.78003,-27.88001 -17.30005,-40.32001 14.62006,3.71002 31.59003,-6.19 43.81006,2.33996 12.21997,8.53003 11.87,21.60004 11.87,21.60004 z m 30.67999,-17.17005 -22.21002,31.79999 -10.51996,-2.95996 26.32001,-37.70001 z"
         stroke-linecap="round"
         id="path5" />
</g><g
     transform="matrix(1.0249462,0,0,1.0249462,244.72083,364.50791)"
     id="g6"
     style="paint-order:stroke">
<path
         style="opacity:1;fill:#f25536;fill-rule:nonzero;stroke:none;stroke-width:1;stroke-linecap:butt;stroke-linejoin:miter;stroke-miterlimit:4;stroke-dasharray:none;stroke-dashoffset:0"
         paint-order="stroke"
         transform="translate(-426.55309,-598.78913)"
         d="m 438.26035,613.07876 c -15.13909,12.40321 -32.65327,16.06031 -39.11902,8.16836 -6.46574,-7.89194 0.5654,-24.34442 15.7045,-36.74763 15.13909,-12.40321 32.65327,-16.06031 39.11901,-8.16836 6.46574,7.89195 -0.5654,24.34442 -15.70449,36.74763 z"
         stroke-linecap="round"
         id="path6" />
</g></g>
</svg>
